t180;// [bass]@2 o3 l4 q5>[a+]4 [a+]4 [g+]4 [f+]4 [g+]4[a+]3a+8a+8 [g+]3g+8g+8 [f+]3f+8f+8 [g+]3g+8g+8[a+]3a+8a+8 [g+]3g+8g+8 [f+]3f+8f+8 [g+]3g+8g+8;@2 o3 l4 q5 v8[f]4 [f]4 [d+]4 [c+]4 [d+]4[f]3f8f8 [d+]3d+8d+8 [c+]3c+8c+8 [d+]3d+8d+8[f]3f8f8 [d+]3d+8d+8 [c+]3c+8c+8 [d+]3d+8d+8; // [/bass]// [melody]#TABLE 2 { (100, 48)8, (64, 12)8 };#TABLE 3 { 50, 24, 44, 20, 40, 16, 36, 12, 32, 8, 28, 4, 24, 0 };@0 q6o5 l4 na2r1l4a+1< c1  c+1  d+2. c+>l8[a+fg+]a+f[<c>g+a+]<c>g+[<c+>g+<c>]<c+>g+[<d+>a+<c+>]<d+c+>[a+fg+]a+f[<c>g+a+]<c>g+[<c+>g+<c>]<c+>g+<d+2. c+4;@0 q6o5 l4 na2 v8r1f1g+1g+1a+2.; // [melody]// [percussion]#H=g;#S=v6 b;#K=v8 <g>;#C=na1 q6 g4 na0 q1;#TABLE 0 { 128};#TABLE 1 { 60, 60, 56, 56, 52, 52, 48, 48, 44, 44, 40, 40, 36, 36, 32, 32, 28, 28, 24, 24 };// HiHat + Crash@1 q1 l16 v4 na0S;// Snare + Kick@1 q1 l16K;// [percussion]