t180;// [bass]@2 o3 l8 q6>[[a+ <f>]4 [g+ <d+>]4 [f+ <c+>]4 [g+ <d+>]4]8; // [/bass]// [melody]#TABLE 2 { (100, 48)8, (64, 12)8 };#TABLE 3 { 50, 24, 44, 20, 40, 16, 36, 12, 32, 8, 28, 4, 24, 0 };@0 q6o5 l4 na2[g+. f. g+ a+2. r <c+. c.> a+ g+2 a+2  g+. f. g+ a+2. r <c+. c. c+ d+2 f2>]<f. d+. c+ c. c+. d+>a+2.< r c2. rf. d+. c+ c. c+. d+f. f+2 r8 g+. f2 r8f. d+. c+ c. c+. d+>a+. g+. a+< c2 c+2f. d+. c+ c. c+. d+f. f+2 r8 g+. a+2 r8>; // [melody]// [percussion]#H=g;#S=v6 b;#K=v8 <g>;#C=na1 q6 g4 na0 q1;#TABLE 0 { 128};#TABLE 1 { 60, 60, 56, 56, 52, 52, 48, 48, 44, 44, 40, 40, 36, 36, 32, 32, 28, 28, 24, 24 };// HiHat + Crash@1 q1 l16 v4 na0[v4 [H]16    [H]8  v8 C  C]16;// Snare + Kick@1 q1 l16[SrKr KrSr rrKr Srrr]32;// [percussion]